<?xml version="1.0" standalone="no"?><!DOCTYPE svg PUBLIC "-//W3C//DTD SVG 1.1//EN" "http://www.w3.org/Graphics/SVG/1.1/DTD/svg11.dtd"><svg t="1687063933228" class="icon" viewBox="0 0 1024 1024" version="1.1" xmlns="http://www.w3.org/2000/svg" p-id="54780" xmlns:xlink="http://www.w3.org/1999/xlink" width="200" height="200"><path d="M506.413 354.56c-31.872 0-57.8-44.629-57.8-99.488 0-56.238 27.779-63.99 57.8-63.99 30.021 0 57.8 7.752 57.8 63.99 0 54.859-25.928 99.488-57.8 99.488z m0-159.334c-44.68 0-53.656 22.897-53.656 59.847 0 52.572 24.071 95.344 53.656 95.344s53.656-42.772 53.656-95.344c0-49.837-20.53-59.847-53.656-59.847zM419.477 675.552a2.071 2.071 0 0 1-2.072-2.072V479.547a2.071 2.071 0 1 1 4.144 0V673.48a2.072 2.072 0 0 1-2.072 2.072zM575.516 675.552a2.071 2.071 0 0 1-2.072-2.072V479.547a2.071 2.071 0 1 1 4.144 0V673.48a2.072 2.072 0 0 1-2.072 2.072z" fill="#004452" p-id="54781"></path><path d="M246.514 634.248m-29.566 0a29.566 29.566 0 1 0 59.132 0 29.566 29.566 0 1 0-59.132 0Z" fill="#0D7F90" p-id="54782"></path><path d="M246.515 665.886c-17.445 0-31.637-14.194-31.637-31.637s14.192-31.637 31.637-31.637 31.637 14.194 31.637 31.637-14.192 31.637-31.637 31.637z m0-59.131c-15.161 0-27.494 12.333-27.494 27.494s12.333 27.494 27.494 27.494 27.494-12.333 27.494-27.494-12.333-27.494-27.494-27.494z" fill="#003137" p-id="54783"></path><path d="M771.575 634.248m-29.566 0a29.566 29.566 0 1 0 59.132 0 29.566 29.566 0 1 0-59.132 0Z" fill="#0D7F90" p-id="54784"></path><path d="M771.575 665.886c-17.445 0-31.639-14.194-31.639-31.637s14.194-31.637 31.639-31.637 31.637 14.194 31.637 31.637-14.191 31.637-31.637 31.637z m0-59.131c-15.161 0-27.496 12.333-27.496 27.494s12.335 27.494 27.496 27.494c15.161 0 27.494-12.333 27.494-27.494s-12.332-27.494-27.494-27.494z" fill="#003137" p-id="54785"></path><path d="M824.479 695.484c-7.287-2.751-178.516-68.053-181.894-128.887-2.579-46.418-1.052-96.271-0.316-120.228 0.21-6.915 0.364-11.908 0.314-13.567 0.653-7.611-4.214-23.512-15.04-34.21-8.268-8.165-18.179-11.71-29.497-10.605h-178.57c-11.487-1.133-21.435 2.436-29.701 10.605-10.828 10.698-15.695 26.6-15.048 33.964-0.044 1.906 0.109 6.899 0.32 13.814 0.736 23.957 2.264 73.81-0.316 120.228-3.377 60.834-174.607 126.136-181.894 128.887l-1.465-3.876c1.76-0.664 175.993-67.082 179.224-125.237 2.569-46.244 1.044-95.975 0.31-119.872-0.223-7.251-0.368-12.041-0.312-13.826-0.686-7.619 4.004-24.908 16.268-37.027 9.055-8.95 20.405-13.077 32.821-11.791H597.84c12.228-1.25 23.559 2.84 32.614 11.791 12.264 12.118 16.953 29.404 16.262 37.273 0.063 1.538-0.083 6.328-0.305 13.579-0.734 23.897-2.26 73.628 0.31 119.872 3.233 58.156 177.464 124.574 179.224 125.237l-1.466 3.876z" fill="#004452" p-id="54786"></path><path d="M502.638 825.742c-87.418 0-174.833-0.271-216.268-0.809-33.341-0.433-72.182-18.985-78.674-58.682-4.918-30.083 13.174-56.974 46.094-68.518 112.676-31.067 198.423 1.61 248.842 32.564 50.397-30.965 136.077-63.655 248.652-32.624 33.122 11.604 51.215 38.495 46.296 68.579-6.492 39.697-45.333 58.249-78.674 58.682-41.435 0.537-128.85 0.808-216.268 0.808zM343.566 691.377c-27.033 0-56.386 3.593-87.924 12.284-36.126 12.673-45.321 40.134-41.813 61.587 5.913 36.165 41.789 53.07 72.621 53.47 82.837 1.084 349.537 1.084 432.375 0 30.832-0.401 66.707-17.306 72.621-53.47 3.508-21.453-5.687-48.914-42.016-61.648-108.43-29.881-191.36 0.583-240.956 30.375 29.226 18.859 45.008 36.092 45.422 36.557a3.107 3.107 0 0 1-0.245 4.386 3.105 3.105 0 0 1-4.386-0.243c-0.417-0.461-16.65-18.143-46.64-37.095-29.978 18.956-46.199 36.634-46.616 37.095a3.107 3.107 0 1 1-4.631-4.143c0.415-0.465 16.199-17.69 45.404-36.549-35.199-21.137-87.214-42.606-153.216-42.606z" fill="#004452" p-id="54787"></path></svg>